<?xml version="1.0" encoding="UTF-8" standalone="no"?>
<svg
   xmlns:dc="http://purl.org/dc/elements/1.1/"
   xmlns:cc="http://creativecommons.org/ns#"
   xmlns:rdf="http://www.w3.org/1999/02/22-rdf-syntax-ns#"
   xmlns:svg="http://www.w3.org/2000/svg"
   xmlns="http://www.w3.org/2000/svg"
   version="1.1"
   width="603.55927"
   height="933.99048"
   viewBox="0 -18.338113 603.55926 933.99044"
   id="svg17">
  <metadata
     id="metadata23">
    <rdf:RDF>
      <cc:Work
         rdf:about="">
        <dc:format>image/svg+xml</dc:format>
        <dc:type
           rdf:resource="http://purl.org/dc/dcmitype/StillImage" />
        <dc:title></dc:title>
      </cc:Work>
    </rdf:RDF>
  </metadata>
  <defs
     id="defs21">
    <defs
       id="SvgjsDefs3160" />
  </defs>
  <g
     id="SvgjsG3161"
     featureKey="nYIUkx-0"
     transform="matrix(11.198711,0,0,11.198711,-235.7619,-88.883196)"
     fill="#c12f2f">
    <g
       fill="none"
       stroke="#000000"
       font-family="'Times New Roman'"
       font-size="16px"
       transform="scale(1,-1)"
       id="g9">
      <g
         transform="translate(0,-96)"
         id="g7">
        <g
           id="g5">
          <path
             d="m 21.633,34.925 c 3.34,11.93 19.204,18.785 25.289,31.298 2.944,6.056 1.568,17.238 -3.458,21.716 -0.267,0.239 -1.374,2.387 -0.247,1.582 C 54.416,81.327 63.521,70.509 59.309,60.068 53.464,45.577 38.409,38.34 38.519,23.585 38.566,17.447 43.088,12.523 48.838,7.375 L 49.073,6.299 C 34.143,10.56 17.742,21.028 21.633,34.925 Z M 59.314,18.723 c 8.673,7.801 13.968,12.54 11.729,21.575 2.723,-4.179 5.252,-9.975 3.092,-14.492 C 72.203,21.769 70.28,18.956 63.244,15.02 59.515,12.935 56.712,10.677 54.37,6.898 c -0.122,3.955 0.641,7.954 4.944,11.825 z m -9.628,13.43 c 3.317,6.102 8.159,10.469 12.852,16.729 3.331,4.443 6.382,11.822 3.193,17.846 l 0.206,0.288 C 70.824,61.556 71.028,52.654 69.495,46.059 67.086,35.69 58.5,31.5 53.511,23.918 51.557,20.948 50.446,17.311 51,13.5 45.461,18.021 46.717,26.69 49.686,32.153 Z"
             stroke-linejoin="miter"
             stroke-linecap="round"
             stroke="none"
             stroke-width="0.75"
             fill="#c12f2f"
             marker-start="none"
             marker-end="none"
             stroke-miterlimit="79.8403"
             id="path3" />
        </g>
      </g>
    </g>
  </g>
</svg>
